<svg height="236" viewBox="0 0 125 236" width="125" xmlns="http://www.w3.org/2000/svg"><g fill="none" fill-rule="evenodd" transform="translate(.698925)"><path d="m50.3010753 204c30-20.666667 43-49.333333 39-86-6-55-70-118-70-118s103.9999997 83 103.9999997 138c0 31.333333-23 54.333333-68.9999997 69z" fill="#e6e7e8"/><path d="m75.3010753 215c-34-20.666667-48.6666667-47.666667-44-81 4.6666666-33.333333 28-74 69.9999997-122-59.3333331 50.6666667-92.6666664 94.666667-99.99999973 132s16.33333333 62.666667 71.00000003 76z" fill="#fa8100"/><path d="m63.3010753 69c14 60 18.6666666 100.333333 14 121-4.6666667 20.666667-17.6666667 30.666667-39 30 32.6666666 21.333333 52.3333333 21.333333 59 0s-4.6666667-71.666667-34-151z" fill="#80868f"/></g></svg>