<?xml version="1.0" encoding="UTF-8"?>
<svg width="70px" height="70px" viewBox="0 0 70 70" version="1.1" xmlns="http://www.w3.org/2000/svg" xmlns:xlink="http://www.w3.org/1999/xlink">
    <title>finance-icon</title>
    <g id="finance-icon" stroke="none" stroke-width="1" fill="none" fill-rule="evenodd">
        <g id="noun_Market-Analysis_986331" transform="translate(5.000000, 6.000000)" fill="#BDBDBD" fill-rule="nonzero">
            <g id="Group">
                <path d="M47.31,30.21 L47.215,30.875 C46.835,34.01 45.505,36.955 43.415,39.425 C39.995,43.415 34.96,45.505 29.64,45.22 L28.975,45.22 L26.03,59.28 L26.79,59.375 C28.12,59.565 29.355,59.66 30.685,59.66 C39.805,59.66 48.355,55.67 54.15,48.83 C58.425,43.795 60.895,37.715 61.37,31.16 L61.465,30.4 L47.31,30.21 Z M51.68,31.635 L57.95,40.09 C57.285,41.61 56.525,43.035 55.67,44.46 L47.975,34.105 C48.26,33.25 48.45,32.395 48.64,31.54 L51.68,31.635 Z M43.89,40.945 L50.825,50.255 C49.685,51.3 48.545,52.25 47.31,53.01 L40.47,43.795 C41.705,43.035 42.845,42.085 43.89,40.945 Z M46.075,53.77 C44.745,54.53 43.415,55.195 41.99,55.765 L34.77,46.075 C36.29,45.695 37.81,45.22 39.14,44.46 L46.075,53.77 Z M30.305,46.55 C31.35,46.55 32.3,46.55 33.25,46.36 L40.66,56.335 C39.14,56.905 37.62,57.285 36.005,57.57 L29.735,49.21 L30.305,46.55 Z M27.93,57.855 L29.355,51.015 L34.39,57.76 C33.25,57.855 32.11,57.95 30.875,57.95 C29.925,58.045 28.88,57.95 27.93,57.855 Z M53.295,47.69 C52.82,48.26 52.345,48.735 51.87,49.305 L44.84,39.9 C45.885,38.665 46.74,37.24 47.31,35.72 L54.72,45.695 C54.34,46.36 53.865,47.025 53.295,47.69 Z M58.52,38.57 L53.39,31.635 L60.135,31.635 C59.85,34.01 59.375,36.29 58.52,38.57 Z" id="Shape"></path>
                <path d="M20.235,41.23 C16.91,38.38 14.82,34.39 14.44,30.02 C14.06,25.65 15.485,21.375 18.335,17.955 C18.905,17.29 19.475,16.72 20.14,16.15 L20.615,15.77 L12.73,3.705 L12.16,4.18 C10.45,5.51 8.835,7.03 7.41,8.645 C-3.61,21.565 -1.995,41.135 10.925,52.06 C14.25,54.91 18.145,57 22.325,58.14 L23.085,58.33 L26.03,44.27 L25.46,44.08 C23.465,43.51 21.755,42.56 20.235,41.23 Z M22.04,56.62 C18.335,55.48 14.915,53.58 11.875,51.015 C-0.475,40.565 -1.995,21.945 8.455,9.595 C9.595,8.265 10.925,6.935 12.35,5.795 L18.715,15.485 C18.145,15.96 17.67,16.53 17.195,17.1 C14.06,20.71 12.635,25.365 13.015,30.21 C13.395,34.96 15.675,39.33 19.285,42.465 C20.805,43.7 22.515,44.745 24.415,45.505 L22.04,56.62 Z" id="Shape"></path>
                <path d="M61.56,26.41 L61.56,24.985 L58.52,24.985 L58.52,0.38 L51.87,0.38 L51.87,24.985 L49.495,24.985 L49.495,5.605 L42.845,5.605 L42.845,24.985 L40.47,24.985 L40.47,10.735 L33.82,10.735 L33.82,24.985 L31.445,24.985 L31.445,15.39 L24.795,15.39 L24.795,24.985 L21.755,24.985 L21.755,26.41 L61.56,26.41 Z M53.295,1.805 L57.095,1.805 L57.095,24.985 L53.295,24.985 L53.295,1.805 Z M44.27,7.03 L48.07,7.03 L48.07,24.985 L44.27,24.985 L44.27,7.03 Z M35.245,12.16 L39.045,12.16 L39.045,24.985 L35.245,24.985 L35.245,12.16 Z M26.22,16.815 L30.02,16.815 L30.02,24.985 L26.22,24.985 L26.22,16.815 Z" id="Shape"></path>
            </g>
        </g>
    </g>
</svg>