<?xml version="1.0" encoding="UTF-8"?>
<svg width="70px" height="70px" viewBox="0 0 70 70" version="1.1" xmlns="http://www.w3.org/2000/svg" xmlns:xlink="http://www.w3.org/1999/xlink">
    <title>re-strategy</title>
    <g id="re-strategy" stroke="none" stroke-width="1" fill="none" fill-rule="evenodd">
        <g id="noun_smart-idea_986343" transform="translate(5.000000, 2.000000)" fill="#BDBDBD" fill-rule="nonzero">
            <g id="Group">
                <path d="M10.4,13.9 C14.8,9.4 20.6,6.5 26.8,5.7 C27.3,7.3 28.7,8.6 30.5,8.6 C32.6,8.6 34.4,6.9 34.4,4.7 C34.4,2.5 32.7,0.8 30.5,0.8 C28.5,0.8 26.9,2.3 26.7,4.2 C20.1,5 13.9,8.1 9.3,12.8 L10.4,13.9 Z M30.5,2.3 C31.8,2.3 32.9,3.4 32.9,4.7 C32.9,6 31.8,7.1 30.5,7.1 C29.2,7.1 28.1,6 28.1,4.7 C28.1,3.3 29.2,2.3 30.5,2.3 Z" id="Shape"></path>
                <path d="M2.1,41.9 L3.5,41.5 C2.7,38.9 2.4,36.3 2.4,33.6 C2.4,29.9 3.1,26.2 4.5,22.8 C4.8,22.9 5.2,22.9 5.5,22.9 C6.9,22.9 8.2,22.2 8.9,21 C10,19.1 9.3,16.8 7.5,15.7 C6.9,15.4 6.2,15.2 5.5,15.2 C4.1,15.2 2.8,15.9 2.1,17.1 C1.7,17.9 1.5,19 1.8,20 C2,20.8 2.5,21.5 3.2,22 C1.7,25.6 0.9,29.5 0.9,33.5 C0.9,36.3 1.3,39.2 2.1,41.9 Z M3.5,17.8 C3.9,17.1 4.7,16.6 5.6,16.6 C6,16.6 6.4,16.7 6.8,16.9 C7.9,17.6 8.3,19 7.7,20.2 C7,21.3 5.5,21.7 4.4,21 C3.8,20.7 3.5,20.2 3.3,19.5 C3.1,19 3.2,18.3 3.5,17.8 Z" id="Shape"></path>
                <path d="M8.1,50.5 C8.6,50 8.9,49.5 9.1,48.8 C9.4,47.8 9.2,46.8 8.7,45.9 C8,44.7 6.7,43.9 5.3,43.9 C4.6,43.9 4,44.1 3.4,44.4 C1.6,45.4 1,47.8 2,49.7 C2.7,50.9 4,51.7 5.4,51.7 C5.9,51.7 6.4,51.6 6.9,51.4 C10.8,56.5 16.2,60.3 22.4,62 L22.8,60.6 C17,58.9 11.8,55.3 8.1,50.5 Z M3.3,48.9 C2.7,47.8 3.1,46.3 4.2,45.6 C4.6,45.4 5,45.3 5.4,45.3 C6.3,45.3 7.1,45.8 7.5,46.5 C7.8,47.1 7.9,47.7 7.7,48.3 C7.5,48.9 7.1,49.4 6.6,49.7 C5.5,50.5 4,50 3.3,48.9 Z" id="Shape"></path>
                <path d="M50.4,53.3 C46,57.7 40.3,60.5 34.2,61.3 C34,60.7 33.7,60.1 33.2,59.6 C32.5,58.9 31.5,58.4 30.4,58.4 C28.3,58.4 26.5,60.1 26.5,62.2 C26.5,64.3 28.2,66.1 30.3,66.1 L30.3,66.1 C32.3,66.1 33.9,64.6 34.1,62.7 C40.6,61.9 46.6,58.9 51.3,54.2 L50.4,53.3 Z M30.5,64.8 L30.5,65.5 L30.5,64.8 C29.2,64.8 28.1,63.7 28.1,62.4 C28.1,61.1 29.2,60 30.5,60 C31.1,60 31.7,60.3 32.2,60.7 C32.6,61.2 32.9,61.8 32.9,62.4 C32.9,63.7 31.8,64.8 30.5,64.8 Z" id="Shape"></path>
                <path d="M53,16.7 C51.8,17.9 51.4,19.8 52.3,21.4 C53,22.6 54.3,23.4 55.7,23.4 C56.4,23.4 57,23.2 57.6,22.9 C59.5,21.9 60.2,19.5 59.1,17.6 C58.4,16.4 57.1,15.6 55.7,15.6 C55.2,15.6 54.7,15.7 54.3,15.9 C50.2,10.4 44.3,6.4 37.7,4.8 L37.3,6.3 C43.6,7.8 49.2,11.5 53,16.7 Z M57.8,18.3 C58.4,19.4 58,20.9 56.9,21.5 C55.8,22.1 54.3,21.7 53.7,20.6 C53.1,19.5 53.5,18 54.6,17.4 C55,17.2 55.4,17.1 55.8,17.1 C56.6,17.1 57.4,17.6 57.8,18.3 Z" id="Shape"></path>
                <path d="M57.7,45.2 C59.3,41.5 60.1,37.6 60.1,33.5 C60.1,31 59.8,28.4 59.1,26 L57.6,26.4 C58.2,28.7 58.5,31.1 58.5,33.5 C58.5,37.3 57.7,41 56.2,44.5 C55.9,44.4 55.5,44.4 55.1,44.4 C53.7,44.4 52.5,45.1 51.8,46.3 C50.7,48.1 51.3,50.5 53.1,51.6 C53.7,52 54.4,52.1 55.1,52.1 C56.5,52.1 57.7,51.4 58.4,50.2 C58.9,49.3 59.1,48.3 58.8,47.3 C58.9,46.5 58.4,45.8 57.7,45.2 Z M57.3,49.5 C56.7,50.6 55.1,51 54,50.3 C52.9,49.6 52.5,48.2 53.2,47 C53.6,46.3 54.4,45.8 55.3,45.8 C55.7,45.8 56.1,45.9 56.5,46.1 C57,46.4 57.4,46.9 57.6,47.6 C57.8,48.3 57.7,48.9 57.3,49.5 Z" id="Shape"></path>
                <path d="M33.6,54.1 C34.9,54.1 35.9,53.2 36.2,51.9 C36.2,51.6 36.3,51.3 36.3,50.8 C36.3,50.8 36.3,50.8 36.3,50.8 L37.7,50.8 L37.7,49.3 L36.4,49.3 C36.4,49.2 36.6,48.4 36.6,48 L39,48 L39,46.5 L37,46.5 C37.8,43 39.1,39.7 40.8,36.8 C40.9,36.6 41,36.5 41.1,36.3 C42.3,34.3 42.8,32 42.7,29.6 C42.4,23.4 37.5,18.4 31.3,18 C24.1,17.5 18.2,23.2 18.2,30.3 C18.2,31.7 18.4,33 18.9,34.4 L20,36.5 C20.2,36.8 20.3,37 20.5,37.3 L20.6,37.4 C22.2,40.2 23.3,43.3 24.1,46.5 L21.9,46.5 L21.9,48 L24.4,48 C24.4,48 24.4,48 24.4,48 C24.5,48.3 24.5,48.8 24.6,49.3 L23.3,49.3 L23.3,50.8 L24.8,50.8 C24.8,51 24.8,51.1 24.8,51.3 L24.9,52.1 L24.9,52.3 C25.3,53.3 26.3,54 27.4,54 L33.6,54 L33.6,54.1 Z M21.7,36.5 L21.7,36.5 L21.7,36.5 C21.5,36.2 21.4,35.9 21.2,35.7 L20.2,33.7 C19.8,32.6 19.6,31.4 19.6,30.1 C19.6,23.9 24.8,18.9 31.1,19.3 C36.5,19.7 40.8,24 41.1,29.5 C41.2,31.6 40.7,33.6 39.8,35.3 L39.7,35.4 C39.6,35.6 39.5,35.7 39.4,35.9 C37.6,39 36.2,42.6 35.3,46.4 L25.3,46.4 C24.7,42.9 23.4,39.6 21.7,36.5 Z M25.8,48 L35.1,48 C35,48.3 34.9,49.1 34.9,49.3 L26,49.3 C25.9,48.8 25.8,48.4 25.8,48 Z M26.2,51.9 L26.1,51.2 C26.1,51.1 26.1,51 26.1,50.8 L34.8,50.8 C34.8,51.2 34.7,51.5 34.7,51.7 C34.6,52.2 34.1,52.6 33.6,52.6 L27.3,52.6 C26.8,52.6 26.4,52.3 26.2,51.9 Z" id="Shape"></path>
                <rect id="Rectangle" transform="translate(41.156635, 41.001205) rotate(-134.315287) translate(-41.156635, -41.001205) " x="40.0066452" y="40.2512117" width="2.29997954" height="1.49998666"></rect>
                <rect id="Rectangle" transform="translate(45.130200, 34.198680) rotate(-164.334800) translate(-45.130200, -34.198680) " x="43.9802668" y="33.4487236" width="2.29986641" height="1.49991288"></rect>
                <rect id="Rectangle" transform="translate(45.339165, 26.236035) rotate(-14.323901) translate(-45.339165, -26.236035) " x="44.18918" y="25.4860448" width="2.29997007" height="1.49998048"></rect>
                <rect id="Rectangle" transform="translate(41.423000, 19.450750) rotate(135.664410) translate(-41.423000, -19.450750) " x="40.2729337" y="18.7007068" width="2.30013259" height="1.50008647"></rect>
                <rect id="Rectangle" transform="translate(34.594450, 15.371590) rotate(-164.323766) translate(-34.594450, -15.371590) " x="33.844453" y="14.2215947" width="1.49999391" height="2.29999066"></rect>
                <rect id="Rectangle" transform="translate(26.705875, 15.297225) rotate(165.676099) translate(-26.705875, -15.297225) " x="25.9558848" y="14.14724" width="1.49998048" height="2.29997007"></rect>
                <rect id="Rectangle" transform="translate(19.821935, 19.140885) rotate(135.684713) translate(-19.821935, -19.140885) " x="19.0719417" y="17.9908952" width="1.49998666" height="2.29997954"></rect>
                <rect id="Rectangle" transform="translate(15.834130, 25.898010) rotate(-74.323766) translate(-15.834130, -25.898010) " x="15.084133" y="24.7480147" width="1.49999391" height="2.29999066"></rect>
                <rect id="Rectangle" transform="translate(15.720415, 33.793035) rotate(-104.323901) translate(-15.720415, -33.793035) " x="14.9704248" y="32.64305" width="1.49998048" height="2.29997007"></rect>
                <rect id="Rectangle" transform="translate(19.559795, 40.747665) rotate(-44.404414) translate(-19.559795, -40.747665) " x="18.4098252" y="39.9976847" width="2.29993957" height="1.49996059"></rect>
            </g>
        </g>
    </g>
</svg>