<?xml version="1.0" encoding="UTF-8"?>
<svg width="70px" height="70px" viewBox="0 0 70 70" version="1.1" xmlns="http://www.w3.org/2000/svg" xmlns:xlink="http://www.w3.org/1999/xlink">
    <title>strategy</title>
    <g id="strategy" stroke="none" stroke-width="1" fill="none" fill-rule="evenodd">
        <g id="noun_The-Generation-Idea_986340" transform="translate(8.000000, 2.000000)" fill="#BDBDBD" fill-rule="nonzero">
            <g id="Group">
                <path d="M38.76,35.435 L37.24,33.155 C37.715,32.3 38.095,31.445 38.38,30.495 L41.04,30.02 L41.04,25.555 L38.38,25.08 C38.095,24.13 37.81,23.275 37.24,22.42 L38.76,20.14 L35.625,17.005 L33.345,18.525 C32.49,18.05 31.635,17.67 30.685,17.385 L30.21,14.725 L25.745,14.725 L25.27,17.385 C24.32,17.67 23.465,17.955 22.61,18.525 L20.33,17.005 L17.195,20.14 L18.715,22.42 C18.24,23.275 17.86,24.13 17.575,25.08 L14.915,25.555 L14.915,30.02 L17.575,30.495 C17.86,31.445 18.145,32.395 18.715,33.155 L17.195,35.435 L20.33,38.57 L22.61,37.05 C23.465,37.525 24.32,37.905 25.27,38.19 L25.745,40.85 L30.21,40.85 L30.685,38.19 C31.635,37.905 32.49,37.62 33.345,37.05 L35.53,38.57 L38.76,35.435 Z M33.44,35.34 L33.06,35.625 C32.11,36.195 31.065,36.67 30.02,36.86 L29.45,36.955 L28.975,39.425 L26.885,39.425 L26.41,36.955 L25.935,36.86 C24.795,36.575 23.75,36.195 22.895,35.53 L22.515,35.245 L20.425,36.67 L19,35.15 L20.425,33.155 L20.14,32.775 C19.57,31.825 19.095,30.78 18.905,29.64 L18.81,29.165 L16.34,28.69 L16.34,26.6 L18.81,26.125 L18.905,25.65 C19.19,24.51 19.57,23.56 20.235,22.61 L20.52,22.23 L19.095,20.14 L20.615,18.715 L22.61,20.14 L22.99,19.855 C23.94,19.285 24.985,18.81 26.125,18.62 L26.6,18.525 L27.075,16.055 L29.165,16.055 L29.64,18.525 L30.115,18.62 C31.16,18.81 32.205,19.285 33.155,19.95 L33.535,20.235 L35.625,18.81 L37.05,20.33 L35.625,22.325 L35.91,22.705 C36.48,23.655 36.955,24.7 37.145,25.745 L37.24,26.22 L39.71,26.695 L39.71,28.785 L37.24,29.26 L37.05,29.735 C36.765,30.875 36.385,31.92 35.72,32.775 L35.53,33.25 L36.955,35.34 L35.435,36.765 L33.44,35.34 Z" id="Shape"></path>
                <path d="M28.025,21.945 C24.795,21.945 22.23,24.51 22.23,27.74 C22.23,30.97 24.795,33.535 28.025,33.63 L28.025,33.63 C31.255,33.63 33.82,31.065 33.82,27.835 C33.82,26.315 33.25,24.795 32.11,23.75 C31.065,22.515 29.64,21.945 28.025,21.945 Z M28.025,32.11 L28.025,32.87 L28.025,32.11 C25.555,32.11 23.655,30.115 23.655,27.74 C23.655,25.365 25.65,23.37 28.025,23.37 C29.165,23.37 30.305,23.845 31.16,24.7 C32.015,25.555 32.395,26.6 32.395,27.835 C32.395,30.21 30.4,32.11 28.025,32.11 Z" id="Shape"></path>
                <path d="M42.655,37.24 C42.75,37.05 42.94,36.765 43.13,36.48 C44.745,33.63 45.505,30.305 45.41,26.98 C44.935,18.145 38,11.115 29.165,10.45 C18.905,9.785 10.45,17.86 10.45,27.93 C10.45,29.925 10.83,31.92 11.495,33.915 L12.92,36.765 C13.11,37.145 13.395,37.525 13.585,38 L13.68,38.095 C15.675,41.61 17.195,45.505 18.335,49.59 L15.105,49.59 L15.105,51.015 L18.715,51.015 C18.81,51.49 18.905,51.965 19,52.44 L16.625,52.44 L16.625,53.865 L19.285,53.865 C19.38,54.435 19.475,55.1 19.57,55.86 C19.76,57.095 20.805,58.045 22.04,58.14 C22.42,60.135 24.7,61.655 27.645,61.655 C30.495,61.655 32.87,60.135 33.25,58.14 L33.535,58.14 C34.865,58.14 35.91,57.19 36.1,55.86 C36.1,55.67 36.195,55.48 36.195,55.29 C36.29,54.815 36.385,54.34 36.48,53.865 L39.14,53.865 L39.14,52.44 L36.765,52.44 C36.86,51.965 36.955,51.49 37.145,51.015 L40.66,51.015 L40.66,49.59 L37.525,49.59 C38.76,45.125 40.47,40.945 42.655,37.24 Z M14.915,37.24 L14.915,37.24 C14.63,36.765 14.44,36.385 14.25,36.005 L12.825,33.25 C12.16,31.54 11.875,29.64 11.875,27.835 C11.875,18.62 19.665,11.21 28.975,11.875 C37.05,12.445 43.415,18.905 43.89,26.98 C44.08,30.02 43.32,33.06 41.895,35.625 L41.8,35.815 C41.705,36.005 41.515,36.29 41.42,36.48 C39.14,40.375 37.24,44.84 36.005,49.495 L19.855,49.495 C18.715,45.22 17.005,41.04 14.915,37.24 Z M27.74,60.23 C25.745,60.23 24.035,59.375 23.655,58.14 L31.825,58.14 C31.445,59.28 29.735,60.23 27.74,60.23 Z M34.865,55.1 C34.865,55.29 34.77,55.48 34.77,55.765 C34.675,56.335 34.2,56.81 33.63,56.81 L22.23,56.81 C21.66,56.81 21.09,56.335 21.09,55.765 C20.995,55.1 20.9,54.435 20.805,53.96 L35.055,53.96 C35.055,54.245 34.96,54.625 34.865,55.1 Z M35.34,52.44 L20.52,52.44 C20.425,51.965 20.33,51.49 20.235,51.015 L35.72,51.015 C35.625,51.49 35.435,51.965 35.34,52.44 Z" id="Shape"></path>
                <rect id="Rectangle" transform="translate(19.800228, 7.406404) rotate(67.499572) translate(-19.800228, -7.406404) " x="17.9001798" y="6.69388626" width="3.80009595" height="1.42503598"></rect>
                <rect id="Rectangle" transform="translate(7.871790, 19.235776) rotate(22.500428) translate(-7.871790, -19.235776) " x="5.97174228" y="18.5232578" width="3.80009595" height="1.42503598"></rect>
                <rect id="Rectangle" transform="translate(7.705341, 35.976828) rotate(-22.500428) translate(-7.705341, -35.976828) " x="5.80529278" y="35.2643098" width="3.80009595" height="1.42503598"></rect>
                <rect id="Rectangle" transform="translate(48.153956, 36.302469) rotate(-157.499572) translate(-48.153956, -36.302469) " x="46.2539083" y="35.5899508" width="3.80009595" height="1.42503598"></rect>
                <rect id="Rectangle" transform="translate(48.343690, 19.526124) rotate(157.499572) translate(-48.343690, -19.526124) " x="46.4436423" y="18.8136063" width="3.80009595" height="1.42503598"></rect>
                <rect id="Rectangle" transform="translate(36.528175, 7.586472) rotate(22.507915) translate(-36.528175, -7.586472) " x="35.8156951" y="5.68652683" width="1.42495887" height="3.79989033"></rect>
                <rect id="Rectangle" x="27.455" y="0.095" width="1.425" height="7.695"></rect>
                <rect id="Rectangle" transform="translate(11.351037, 10.801433) rotate(45.000000) translate(-11.351037, -10.801433) " x="7.5035739" y="10.0889403" width="7.6949262" height="1.42498633"></rect>
                <rect id="Rectangle" x="0.38" y="26.885" width="7.695" height="1.425"></rect>
                <rect id="Rectangle" transform="translate(11.068269, 44.457207) rotate(-135.000000) translate(-11.068269, -44.457207) " x="10.3557763" y="40.6097439" width="1.42498633" height="7.6949262"></rect>
                <rect id="Rectangle" transform="translate(44.745000, 44.695781) rotate(-135.000000) translate(-44.745000, -44.695781) " x="40.8975369" y="43.9832873" width="7.6949262" height="1.42498633"></rect>
                <rect id="Rectangle" x="47.975" y="27.17" width="7.695" height="1.425"></rect>
                <rect id="Rectangle" transform="translate(44.960242, 11.067975) rotate(45.000000) translate(-44.960242, -11.067975) " x="44.2477483" y="7.2205119" width="1.42498633" height="7.6949262"></rect>
            </g>
        </g>
    </g>
</svg>